<?xml version="1.0" encoding="UTF-8" standalone="no"?>
<!-- Created with Inkscape (http://www.inkscape.org/) -->

<svg
   width="204.67189mm"
   height="35.55994mm"
   viewBox="0 0 204.67189 35.55994"
   version="1.1"
   id="svg1"
   sodipodi:docname="knocker-black.svg"
   inkscape:version="1.4.2 (ebf0e940d0, 2025-05-08)"
   xmlns:inkscape="http://www.inkscape.org/namespaces/inkscape"
   xmlns:sodipodi="http://sodipodi.sourceforge.net/DTD/sodipodi-0.dtd"
   xmlns="http://www.w3.org/2000/svg"
   xmlns:svg="http://www.w3.org/2000/svg">
  <sodipodi:namedview
     id="namedview1"
     pagecolor="#ffffff"
     bordercolor="#000000"
     borderopacity="0.25"
     inkscape:showpageshadow="2"
     inkscape:pageopacity="0.0"
     inkscape:pagecheckerboard="0"
     inkscape:deskcolor="#d1d1d1"
     inkscape:document-units="mm"
     inkscape:zoom="1.4253648"
     inkscape:cx="404.10709"
     inkscape:cy="28.062992"
     inkscape:window-width="1920"
     inkscape:window-height="1011"
     inkscape:window-x="0"
     inkscape:window-y="0"
     inkscape:window-maximized="1"
     inkscape:current-layer="layer1"
     inkscape:clip-to-page="true"
     showborder="false" />
  <defs
     id="defs1">
    <rect
       x="39.288189"
       y="425.15433"
       width="607.56378"
       height="202.05354"
       id="rect1" />
  </defs>
  <g
     inkscape:label="Layer 1"
     inkscape:groupmode="layer"
     id="layer1"
     transform="translate(-3.5522995,-148.19943)">
    <text
       xml:space="preserve"
       transform="matrix(0.26458333,0,0,0.26458333,40.095,22.275)"
       id="text1"
       style="font-size:192px;line-height:0.8;font-family:'IBM Plex Sans Arabic';-inkscape-font-specification:'IBM Plex Sans Arabic';text-align:start;writing-mode:lr-tb;direction:ltr;white-space:pre;shape-inside:url(#rect1);shape-padding:0;display:inline;fill:#1a1a1a" />
    <path
       d="m 3.5523266,183.75937 v -35.56 h 4.5719999 v 15.494 h 8.3819995 l 9.5504,-15.494 h 5.3848 l -10.668,16.764 11.43,18.796 h -5.2832 l -9.7028,-16.002 H 8.1243265 v 16.002 z m 32.0039554,0 v -28.448 h 20.828 l 4.572,4.572 v 23.876 h -4.572 v -24.384 h -16.256 v 24.384 z m 31.242045,-4.572 v -19.304 l 4.572,-4.572 h 15.747999 l 4.572,4.572 v 19.304 l -4.572,4.572 H 71.370327 Z m 4.572,0.508 h 15.747999 v -20.32 H 71.370327 Z m 25.908018,-0.508 v -19.304 l 4.572005,-4.572 h 18.79599 v 4.064 h -18.79599 v 20.32 h 18.79599 v 4.064 h -18.79599 z m 27.939995,4.572 v -35.56 h 4.572 v 18.7452 h 9.0424 l 7.62,-11.6332 h 5.2324 l -8.9408,13.1064 9.398,15.3416 h -5.1816 l -7.6708,-12.7508 h -9.4996 v 12.7508 z m 29.21001,-4.572 v -19.304 l 4.572,-4.572 h 19.812 v 15.748 h -19.812 v 8.636 h 18.796 v 4.064 h -18.796 z m 4.572,-11.684 15.4432,-0.508 v -7.62 h -15.4432 z m 25.654,16.256 v -23.876 l 4.572,-4.572 h 15.24 v 4.064 h -15.24 v 24.384 z"
       id="text2"
       style="font-size:50.8px;line-height:0.8;font-family:Tektur;-inkscape-font-specification:Tektur;fill:#1a1a1a;stroke-width:0.264583"
       aria-label="Knocker" />
    <circle
       style="fill:#fde562;fill-opacity:1;stroke-width:0.264583"
       id="path2"
       cx="203.30513"
       cy="157.00136"
       r="4.9190621" />
    <ellipse
       style="fill:#fde562;fill-opacity:1;stroke-width:0.264583"
       id="path3"
       cx="203.09631"
       cy="157.52602"
       rx="0.11601562"
       ry="0.85851562" />
  </g>
</svg>