<?xml version="1.0" encoding="UTF-8" standalone="no"?>
<svg
   height="48px"
   viewBox="0 -960 960 960"
   width="48px"
   fill="#FFFFFF"
   version="1.1"
   id="svg1"
   sodipodi:docname="door_open_100dp_FFFFFF_FILL1_wght100_GRAD0_opsz48.svg"
   inkscape:version="1.4.2 (ebf0e940d0, 2025-05-08)"
   xmlns:inkscape="http://www.inkscape.org/namespaces/inkscape"
   xmlns:sodipodi="http://sodipodi.sourceforge.net/DTD/sodipodi-0.dtd"
   xmlns="http://www.w3.org/2000/svg"
   xmlns:svg="http://www.w3.org/2000/svg">
  <defs
     id="defs1" />
  <sodipodi:namedview
     id="namedview1"
     pagecolor="#ffffff"
     bordercolor="#000000"
     borderopacity="0.25"
     inkscape:showpageshadow="2"
     inkscape:pageopacity="0.0"
     inkscape:pagecheckerboard="0"
     inkscape:deskcolor="#d1d1d1"
     inkscape:zoom="22.627417"
     inkscape:cx="27.223611"
     inkscape:cy="25.853592"
     inkscape:window-width="1920"
     inkscape:window-height="1011"
     inkscape:window-x="0"
     inkscape:window-y="0"
     inkscape:window-maximized="1"
     inkscape:current-layer="svg1" />
  <ellipse
     style="fill:#1a1a1a;stroke-width:20"
     id="path2"
     cx="479.39853"
     cy="-479.3985"
     rx="479.3985"
     ry="478.1955" />
  <path
     d="m 764,-172 v -22 h -56 v -563 q 0,-21.5 -16.25,-37.75 Q 675.5,-811 654,-811 H 306 q -21.5,0 -37.75,16.25 Q 252,-778.5 252,-757 v 563 h -56 v 22 z m -404,-22 h -86 v -563 q 0,-14 9,-23 9,-9 23,-9 h 128 v -3 q -32,2 -53,25.7 -21,23.7 -21,55.3 z m 159.81,-261 q -9.81,0 -17.31,-7.69 -7.5,-7.7 -7.5,-17.5 0,-9.81 7.69,-17.31 7.7,-7.5 17.5,-7.5 9.81,0 17.31,7.69 7.5,7.7 7.5,17.5 0,9.81 -7.69,17.31 -7.7,7.5 -17.5,7.5 z"
     id="path1"
     style="fill:#ffffff" />
  <ellipse
     style="fill:#fde562;stroke-width:22.8063;fill-opacity:1"
     id="path3"
     cx="518.95984"
     cy="-479.2001"
     rx="28.732313"
     ry="28.63653" />
</svg>